# xmcd
#
# Track frame offsets:
#	150
#	12226
#	24621
#	44584
#	59084
#	75709
#	91152
#	108230
#	120945
#	134588
#	150384
#	180712
#
# Disc length: 3540 seconds
#
# Revision: 2
# Processed by: cddbd v1.5.2PL0 Copyright (c) Steve Scherf et al.
# Submitted via: EasyCDDAExtractor 5.0.7
#
DISCID=950dd20c
DTITLE=Candy Coburn - Rev It Up
DYEAR=2007
DGENRE=country
TTITLE0=Rev It Up
TTITLE1=My Lucky Life
TTITLE2=Nothin New
TTITLE3=Hall of Fame
TTITLE4=Hard to Be Good in Texas
TTITLE5=Even in the Hard Times
TTITLE6=Big Dream in a Little Town
TTITLE7=Waitin for the Light to Change
TTITLE8=Rockin a Mile a Minute
TTITLE9=3lderful
TTITLE10=Fire on the Mountain [*]
TTITLE11=Data
EXTD=
EXTT0=
EXTT1=
EXTT2=
EXTT3=
EXTT4=
EXTT5=
EXTT6=
EXTT7=
EXTT8=
EXTT9=
EXTT10=
EXTT11=
PLAYORDER=
